<?xml version="1.0" encoding="UTF-8"?>
<svg width="104px" height="104px" viewBox="0 0 104 104" version="1.1" xmlns="http://www.w3.org/2000/svg" xmlns:xlink="http://www.w3.org/1999/xlink">
    <!-- Generator: Sketch 41.2 (35397) - http://www.bohemiancoding.com/sketch -->
    <title>Apple news iconsvg</title>
    <desc>Created with Sketch.</desc>
    <defs>
        <linearGradient x1="50%" y1="0%" x2="50%" y2="100%" id="linearGradient-1">
            <stop stop-color="#FF4D5F" offset="0%"></stop>
            <stop stop-color="#FF4D5F" offset="100%"></stop>
        </linearGradient>
        <linearGradient x1="0%" y1="50%" x2="108.512881%" y2="50%" id="linearGradient-2">
            <stop stop-color="#FFFFFF" offset="0%"></stop>
            <stop stop-color="#D5D5D5" offset="8.31306816%"></stop>
            <stop stop-color="#EEEFEF" offset="100%"></stop>
        </linearGradient>
        <path d="M4.25,65 L67.0067699,65 C68.1045566,65 69,64.1051659 69,63.001332 L69,1.99866798 C69,0.894124107 68.1076005,0 67.0067699,0 L4.9932301,0 C3.89544336,0 3,0.894834136 3,1.99866798 L3,62.0000002 C3,62.1697954 2.87521045,63.1247896 2,64 C1.12478955,64.8752104 0,65 0,65 L4.25,65 L4.25,65 Z" id="path-3"></path>
        <path d="M4.25,65 L67.0067699,65 C68.1045566,65 69,64.1051659 69,63.001332 L69,1.99866798 C69,0.894124107 68.1076005,0 67.0067699,0 L4.9932301,0 C3.89544336,0 3,0.894834136 3,1.99866798 L3,62.0000002 C3,62.1697954 2.87521045,63.1247896 2,64 C1.12478955,64.8752104 0,65 0,65 L4.25,65 L4.25,65 Z" id="path-5"></path>
    </defs>
    <g id="Page-1" stroke="none" stroke-width="1" fill="none" fill-rule="evenodd">
        <g id="Apple-news-iconsvg">
            <g id="Page-1">
                <g id="Apple-news-icon">
                    <rect id="Rectangle-28" fill="url(#linearGradient-1)" x="0" y="0" width="104" height="104" rx="24"></rect>
                    <g id="Paper" transform="translate(16.000000, 20.000000)">
                        <rect id="Bottom" fill="url(#linearGradient-2)" x="0" y="8" width="66" height="57" rx="2"></rect>
                        <g id="Top-part" transform="translate(3.000000, 0.000000)">
                            <g id="Top">
                                <g id="path-3-link" fill="#000000">
                                    <path d="M4.25,65 L67.0067699,65 C68.1045566,65 69,64.1051659 69,63.001332 L69,1.99866798 C69,0.894124107 68.1076005,0 67.0067699,0 L4.9932301,0 C3.89544336,0 3,0.894834136 3,1.99866798 L3,62.0000002 C3,62.1697954 2.87521045,63.1247896 2,64 C1.12478955,64.8752104 0,65 0,65 L4.25,65 L4.25,65 Z" id="path-3"></path>
                                </g>
                                <g id="path-3-link" fill="#FFFFFF">
                                    <path d="M4.25,65 L67.0067699,65 C68.1045566,65 69,64.1051659 69,63.001332 L69,1.99866798 C69,0.894124107 68.1076005,0 67.0067699,0 L4.9932301,0 C3.89544336,0 3,0.894834136 3,1.99866798 L3,62.0000002 C3,62.1697954 2.87521045,63.1247896 2,64 C1.12478955,64.8752104 0,65 0,65 L4.25,65 L4.25,65 Z" id="path-3"></path>
                                </g>
                            </g>
                            <g id="Lines-Clipped">
                                <mask id="mask-4" fill="white">
                                    <use xlink:href="#path-3"></use>
                                </mask>
                                <g id="path-3"></g>
                                <g id="Lines" mask="url(#mask-4)">
                                    <g transform="translate(11.000000, 40.000000)" id="Bars">
                                        <g>
                                            <g id="Group" fill="#B9B9B9">
                                                <g id="path-6-link">
                                                    <path d="M0.5,2 C0.5,1.17157288 1.16450029,0.5 1.99535303,0.5 L64.004647,0.5 C64.8305076,0.5 65.5,1.16579723 65.5,2 C65.5,2.82842712 64.8354997,3.5 64.004647,3.5 L1.99535303,3.5 C1.16949236,3.5 0.5,2.83420277 0.5,2 Z M0.5,9.5 C0.5,8.67157288 1.16450029,8 1.99535303,8 L64.004647,8 C64.8305076,8 65.5,8.66579723 65.5,9.5 C65.5,10.3284271 64.8354997,11 64.004647,11 L1.99535303,11 C1.16949236,11 0.5,10.3342028 0.5,9.5 Z M0.5,16 C0.5,15.1715729 1.16450029,14.5 1.99535303,14.5 L64.004647,14.5 C64.8305076,14.5 65.5,15.1657972 65.5,16 C65.5,16.8284271 64.8354997,17.5 64.004647,17.5 L1.99535303,17.5 C1.16949236,17.5 0.5,16.8342028 0.5,16 Z" id="path-6"></path>
                                                </g>
                                                <g id="path-6-link">
                                                    <path d="M0.5,2 C0.5,1.17157288 1.16450029,0.5 1.99535303,0.5 L64.004647,0.5 C64.8305076,0.5 65.5,1.16579723 65.5,2 C65.5,2.82842712 64.8354997,3.5 64.004647,3.5 L1.99535303,3.5 C1.16949236,3.5 0.5,2.83420277 0.5,2 Z M0.5,9.5 C0.5,8.67157288 1.16450029,8 1.99535303,8 L64.004647,8 C64.8305076,8 65.5,8.66579723 65.5,9.5 C65.5,10.3284271 64.8354997,11 64.004647,11 L1.99535303,11 C1.16949236,11 0.5,10.3342028 0.5,9.5 Z M0.5,16 C0.5,15.1715729 1.16450029,14.5 1.99535303,14.5 L64.004647,14.5 C64.8305076,14.5 65.5,15.1657972 65.5,16 C65.5,16.8284271 64.8354997,17.5 64.004647,17.5 L1.99535303,17.5 C1.16949236,17.5 0.5,16.8342028 0.5,16 Z" id="path-6"></path>
                                                </g>
                                            </g>
                                        </g>
                                    </g>
                                </g>
                            </g>
                            <g id="News-icon-Clipped">
                                <mask id="mask-6" fill="white">
                                    <use xlink:href="#path-5"></use>
                                </mask>
                                <g id="path-3"></g>
                                <g id="News-icon" mask="url(#mask-6)">
                                    <g transform="translate(11.000000, 8.000000)" id="Group">
                                        <g>
                                            <path d="M0.499999913,24.53467 L0.499999996,16.1185663 L2.14442115,16.1116162 L9.98565676,24.3262438 L10,25.9999995 L1.89496105,25.9999997 L0.499999913,24.53467 L0.499999913,24.53467 Z M25.8011898,2.15106354 L25.8011898,10.9926984 L24.0736241,11 L16.0413213,2.16338882 L16.0413212,0.499999702 L24.3356973,0.611644516 L25.8011898,2.15106354 L25.8011898,2.15106354 Z M26,19.625 L26,24.7881413 L24.9733534,25.9247168 L19.0920332,26 L0.5,6.99116602 L0.55816291,1.60848569 L1.56496283,0.5 L6.92381765,0.561954349 L26,19.625 L26,19.625 Z" id="Shape" fill="#FF4D5F"></path>
                                        </g>
                                    </g>
                                </g>
                            </g>
                        </g>
                    </g>
                </g>
            </g>
        </g>
    </g>
</svg>