<?xml version="1.0" encoding="UTF-8" standalone="no"?>
<svg width="70px" height="70px" viewBox="0 0 70 70" version="1.1" xmlns="http://www.w3.org/2000/svg" xmlns:xlink="http://www.w3.org/1999/xlink">
    <!-- Generator: sketchtool 39.1 (31720) - http://www.bohemiancoding.com/sketch -->
    <title>999FC649-5091-40CB-8AE8-25A8F241072F</title>
    <desc>Created with sketchtool.</desc>
    <defs>
        <polygon id="path-1" points="70 34.9999014 70 0 0 0 0 34.9999014 0 69.9998028 70 69.9998028"></polygon>
    </defs>
    <g id="Workbench-Landing:-Mobile-tab" stroke="none" stroke-width="1" fill="none" fill-rule="evenodd">
        <g id="FB-Instant:-Begin-Setup" transform="translate(-208.000000, -213.000000)">
            <g id="Group-2" transform="translate(208.000000, 213.000000)">
                <g id="Page-1">
                    <g id="Group-3">
                        <mask id="mask-2" fill="white">
                            <use xlink:href="#path-1"></use>
                        </mask>
                        <g id="Clip-2"></g>
                        <path d="M70,3.86853521 C70,1.73205634 68.2677465,-0.000197183099 66.1312676,-0.000197183099 L3.86873239,-0.000197183099 C1.73225352,-0.000197183099 0,1.73205634 0,3.86853521 L0,66.1310704 C0,68.2675493 1.73225352,69.9998028 3.86873239,69.9998028 L66.1312676,69.9998028 C68.2677465,69.9998028 70,68.2675493 70,66.1310704 L70,3.86853521 Z" id="Fill-1" fill="#3D5A98" mask="url(#mask-2)"></path>
                    </g>
                    <path d="M49,70 L49,43.5232523 L58.562,43.5232523 L59.946,32.7364292 L49,32.7364292 L49,25.9495562 C49,22.9037496 49.863,20.8277765 54.318,20.8277765 L60,20.8248346 L60,11.4148024 C59,11.2863411 55.684,11 51.76,11 C43.569,11 38,15.9031014 38,24.9081375 L38,32.7364292 L29,32.7364292 L29,43.5232523 L38,43.5232523 L38,70 L49,70 Z" id="Fill-4" fill="#FFFFFF"></path>
                </g>
            </g>
        </g>
    </g>
</svg>