<svg id="Layer_1" data-name="Layer 1" xmlns="http://www.w3.org/2000/svg" viewBox="0 0 359.44 69.01"><defs><style>.cls-1{fill:#231f20;}</style></defs><title>sovrn_logo_blk</title><path class="cls-1" d="M301.92,337a52.37,52.37,0,0,0,29.54,0,29.82,29.82,0,0,0,11.29-6.44,28.17,28.17,0,0,0,7.15-10.75,47.52,47.52,0,0,0,0-30.31,28.13,28.13,0,0,0-7.15-10.81,29.83,29.83,0,0,0-11.29-6.44,52.35,52.35,0,0,0-29.54,0,29.8,29.8,0,0,0-11.29,6.44,28.11,28.11,0,0,0-7.15,10.81,47.52,47.52,0,0,0,0,30.31,28.15,28.15,0,0,0,7.15,10.75A29.78,29.78,0,0,0,301.92,337Zm7.92-38.29q0-4,1.71-5.79a8.34,8.34,0,0,1,10.28,0q1.71,1.77,1.71,5.79v11.82q0,4-1.71,5.79a8.34,8.34,0,0,1-10.28,0q-1.71-1.77-1.71-5.79V298.67Zm124.67,20v19.38h43.13V318.71H466.89V307.25q0-8.51,3.55-12t11.34-3.49q1.77,0,4.43.18a59.88,59.88,0,0,1,6.56.89V272.39a21.23,21.23,0,0,0-4.73-1.3,32.54,32.54,0,0,0-4.85-.35,15.9,15.9,0,0,0-5.5.89,16.67,16.67,0,0,0-4.31,2.3,15.33,15.33,0,0,0-3.19,3.19,23.87,23.87,0,0,0-2.13,3.43l-1.18-.35v-7.8H434.51v19.38h5.2v26.94h-5.2Zm63,0v19.38h37.58V318.71h-5.2V299.33q0-4,1.71-5.79a8.34,8.34,0,0,1,10.28,0q1.71,1.77,1.71,5.79v19.38h-5.2v19.38h37.58V318.71h-5.2V299.33q0-14.77-5.61-21.68t-15.3-6.91a22.86,22.86,0,0,0-7.09,1,28.1,28.1,0,0,0-5.49,2.42,22,22,0,0,0-4.2,3.13q-1.77,1.72-3.19,3.13v-8H497.48v19.38h5.2v26.94h-5.2ZM390.72,272.39H353.85v19.38h5l12.64,46.32H411.4l12.29-46.32h5.08V272.39H394v19.38h5.32l0,0.08h1.17v8s-0.09,6.62-1.15,9.66c-1,2.79-3.32,7.54-6.7,9.23-3.38-1.69-5.73-6.44-6.7-9.23-1.06-3-1.14-9.35-1.15-9.66v-8h0.65l0-.08h5.32V272.39ZM232,338a115.53,115.53,0,0,0,16.37,1.06q15.36,0,22.57-6.07t7.21-16.57q0-10-6.5-15.44t-20.21-6.72q-2.72-.24-4.49-0.53a13.25,13.25,0,0,1-2.78-.71,2.92,2.92,0,0,1-1.36-.94,2.18,2.18,0,0,1-.35-1.24q0-1.41,2.07-2.12a24.3,24.3,0,0,1,7-.71l0.89,0v3.7h21.76V272.28h-7.9c-1.77-.62-13.88-2.21-19.71-2.21a50.1,50.1,0,0,0-13.77,1.65,27.14,27.14,0,0,0-9.39,4.55,17.08,17.08,0,0,0-5.32,6.85,22,22,0,0,0-1.65,8.57q0,9.93,7,15.36t19.32,7.09a35.44,35.44,0,0,1,7.33,1.6A2.48,2.48,0,0,1,252,318a2.51,2.51,0,0,1-1.65,2.25q-1.66.83-6.85,0.83l-1.8,0v-2.43H219.89V338H232Z" transform="translate(-216.5 -270.07)"/></svg>